<svg xmlns="http://www.w3.org/2000/svg" viewBox="0 0 511.5 601.9"><defs><style>.a{fill:#f1af8b;}.b,.c{fill:#d27e4f;}.b{isolation:isolate;opacity:0.65;}.d{fill:#c36836;}.e{fill:#fff;}.f{fill:#222;}.g{fill:#184f58;}.h{fill:#386e77;}.i{fill:#e2956c;}.j{fill:#da7c87;}.k{fill:#cb5f6c;}.l{fill:#593636;}.m{fill:#684a4a;}.n{fill:#1e1e1e;}.o{fill:#2b2b2b;}.p{fill:#2a232b;}.q{fill:#3a353a;}.r{fill:#1b141c;}.s{fill:#f9bd9c;}</style></defs><path class="a" d="M454.8,480.4c-159.3-65.73-133.27-1.91-126-216.9H181.5s4.8,88.2,5.7,127.2-12.6,46.8-26.7,53.4C53,479.93,17.15,465.18,25.5,596.2H485.4V537.1c-.3,0,2.1-36.9-30.6-56.7Z"/><path class="b" d="M328.8,263.8H181.5c.06,8.51,6.52,104.32,5.4,141.6,40.41,46.84,96.4,46.83,136.8,0-2-37.22,5.14-133.42,5.1-141.6Z"/><path class="c" d="M191.4,407.5c1.5,14.4,5.1,28.2,9.3,41.7,1.35,3.48,15.93,47.54,19.8,36.9-3.88-13.26-10.48-25.87-14.7-39C203.5,444.07,193.47,399.55,191.4,407.5Zm123.9-3c-3.9,24.6-11.7,48.3-16.2,72.6-.3,1.2,1.2,1.5,1.8.6,9.3-23.1,12.3-48.3,15.3-72.9C315.9,404.2,315.3,404.2,315.3,404.5Zm-77.4,35.7c-2.7,10.8,5.7,25.8,18.6,22.8,1.5-.3,1.2-2.4,0-3-22-4.8-12.65-25.73-18.6-19.8Z"/><path class="d" d="M487.2,596.2c-.3-19.8-.9-39.3-.9-59.1l-.9-.9c.3,0,.3,0,.6.3s.3.6.3.3a64.3,64.3,0,0,0-1.8-16.8c-15.06-60.13-90.08-55.47-135.6-78.6-26-10.92-23.21-40.83-22.2-64.5,1.29-26.74,5.25-90.26,6.9-117.6-45.57-.23-108.36.7-154.5,1.2q4.18,54.86,6.6,109.8c.3,21.24,4.46,46.23-11.4,63-24.76,19.18-59,19.27-87.6,30.3C8.21,487.26,23.69,534,21.6,600.1c153.35,1.23,312.83,1.07,465.6-2.4v-1.5Zm-231.6-4.8c-56.34-.13-169.66.15-225.9.6,1.17-40.39-11-92.24,34.5-113.4,23.63-12.54,50.12-18.17,75.6-25.8,13-3.73,26.62-7.73,36.9-17.1,16.55-17.35,12.11-43.57,12-65.4l-3.9-104.4c41.09.78,99.31,1.75,139.8,1.5-1.81,36.35-3.79,72.82-4.2,109.2.2,18.7-1.8,40.39,10.8,56.4,23.57,22.84,59.62,21.49,88.8,32.7,76.3,22.68,63.91,63.22,63.3,128.4q-113.83-2.52-227.7-2.7Z"/><path class="e" d="M344.7,432.7c-4.8-12-17.7-49.8-17.7-49.8-9.92,41.53-45.26,62.56-71.4,87-25.84-24.25-61.39-45.29-71.1-86.4,0,0-13.2,37.2-18,49.5,0,0,18.9,79.5,25.8,94.5a3.28,3.28,0,0,0,.6-1.2,150.46,150.46,0,0,0,3.9,21.9c8.7,32.1,25.8,53.7,25.8,53.7h65.1s30.9-41.1,34.8-71.4c.88-26,23.19-95.54,22.2-97.8Z"/><path class="f" d="M243.3,525.7s-15.9-31.8-17.7-41.4c0,0,33.6-36.3,60.9,3.3l-15.6,38.1s9.9,52.2,9.9,71.7H231.6S235.5,547.9,243.3,525.7Z"/><path class="g" d="M287.7,486.7c-19.44-30.94-52.71-18.34-63.6-2.4,1.5,9,15.3,36.6,17.4,41.1-8.17,26.1-12.19,70-11.4,75.6a1.56,1.56,0,0,0,1.2.6h49.2c5-18-8.26-69.68-8.4-76.2l15.6-37.5C288,487.9,288,487.3,287.7,486.7Zm-18.3,38.4c0,.3-.3.6,0,.9,0,.6,9.3,49.5,9.9,69.9H233.1c.25-9.07,5.64-51.19,11.7-70.8-.3-.3-15.3-30-17.4-40.2,12.7-13.89,41.18-23.66,57.6,3l-15.6,37.2Z"/><path d="M246.6,503.8c-2.7,7.2,4.8,21,4.8,21C252.9,512.5,249.3,496.6,246.6,503.8Zm19.2-4.8c-5.1,2.1-5.4,23.7-5.4,23.7C265.8,514.3,270.9,496.9,265.8,499Zm-2.4,44.7c0,3.3.6,16.5,4.2,12.3s-3.6-23.4-3.6-23.4-.6,7.8-.6,11.1Zm-11.1,8.7c-1.5,11.7,4.2,15.6,5.1,7.2s-.9-27.6-.9-27.6a133.54,133.54,0,0,0-4.2,20.4Zm-6.6-4.2c2.1,4.2,4.2-9.9,3.6-15C249.3,532.9,243.6,544,245.7,548.2Z"/><path class="h" d="M169.2,408.4s-31.8,24-49.5,31.8l6.9,7.8c-5.7,2.33-91,17.88-100.8,30.9,0,0-5.1-3.9-12.6.6S2.4,597.7,2.4,597.7H220.2S187.5,526,167.4,422.5C167.7,422.2,169.2,414.7,169.2,408.4Zm338.7,189s-3.3-113.7-10.8-118.2-12.6-.6-12.6-.6c-9.61-13-95.29-28.62-100.8-30.9l6.9-7.8c-17.7-7.5-49.5-31.8-49.5-31.8a70.44,70.44,0,0,0,1.8,13.8c-20.1,103.5-52.8,175.2-52.8,175.2l217.8.3Z"/><path class="g" d="M507.6,531.1c-1.59-16.93-2.22-33.41-6.6-49.8-2-5.93-10.78-7.23-16.2-4.8-14.49-11.19-32.56-12.51-49.2-17.1l-50.1-12,6-6.3a1,1,0,0,0-.3-1.8c-17.67-8.54-32.94-20.83-48.6-32.4-.82-1.28-3.78.22-4.8.3,0,0-9-23.4-11.1-26.1-2.8,7.81-13.59,37.92-28.5,47.7-14.83,11.68-28.57,24.32-42.3,36.9-13.51-12.44-27.71-25.38-42.3-36.6-23.71-21.15-20-31.54-29.1-46.5l-11.4,23.7a13,13,0,0,0-4.8.3c-15.57,11.73-31.3,24.12-48.6,32.7-2.13.74,5.77,7,6,7.8l-50.1,12c-16.71,4.7-35.08,6.09-49.2,17.1a14.08,14.08,0,0,0-15,2.4c-3.14,6-3.6,12.79-4.5,19.2C2.74,531,1.57,563.81,0,597.1a3.33,3.33,0,0,0,3.3,3.3c64,1.11,155,1,219.9,1.2-9.81-26.12-19.11-52.47-27-79.2a109.87,109.87,0,0,1,16.2-22.5c5.55-5,12.17-9.38,17.1-15.3,7.23-12.59,23.26-11.9,36-11.1,7.4,1.35,13.06,4.83,17.1,11.1,5,5.69,11.39,10.34,17.1,15.3,6.69,6.31,11.59,14.64,16.2,22.5-8.22,26.7-16.46,53.48-27.6,79.2,65.07-2.25,156.09-1.47,220.2-1.2a3.08,3.08,0,0,0,3-3.3C510.3,575.2,509.1,553.3,507.6,531.1ZM6,594.1c2-37.58.18-76.27,8.4-112.8,0-.3.3-.3,0-.3,2.84-1.83,7.41-2.51,10.2-.9a1.89,1.89,0,0,0,1.8,0c21.94,33,16.06,76.68,24,114Zm104.4,1.2-58.8-.9c.08-36.75,4.08-87.09-24.6-114.6,13.14-11.32,32-13.9,48.3-18.6,17.1-4.2,34.5-8.7,51.6-12.3a32.4,32.4,0,0,0,6,4.8c-3.05,3.37-15.07,7.2-14.4,11.4,4.5,11.4,9.3,22.8,14.1,34.2,14.67,33.53,29.63,67,49.8,97.5l-72-1.5Zm100.5-18.6c3,7.13,6,14,9.3,20.7l-37.2-.6c-19.86-41.51-39.49-90.29-59.1-132,14.43-9.6,27.25-20.54,39.9-32.4-9.68,7-19.84,13.54-29.7,20.4-3.19-5.37-7.58-8.91-12.6-12.6,16-7.3,30.68-17.22,45-27.3-.21,3.28-1.29,6.3-1.5,9.6q4,22.5,9.9,45a733.45,733.45,0,0,0,36,109.2Zm33.6-108.3c-7.81,1.82-15.36,6-19.2,13.5-11.35,11.63-24,22.88-30.6,38.1q-13.95-47.42-24-95.7c1.55-9.58,10.52-27.87,13.5-39.9,5.68,35.2,39,60.93,64.2,83.7a8.31,8.31,0,0,0-3.9.3Zm63.9,38.4c-5.77-9.73-15.93-16.67-23.1-25.2-4.74-8.78-13.56-12.73-23.1-14.4,29.39-26.47,57.09-46.24,64.2-82.8.74,2.5,12.47,35.44,13.2,39.3-6.66,32.08-14.7,64.17-24,95.7-2.1-3.9-4.5-8.4-7.2-12.6Zm-18,90.6c19.51-41.23,33.81-85.41,45-129.6,3.9-14.7,6.9-29.7,9.9-45-.21-3.11-1.29-6.23-1.5-9.6,14.14,10.05,29,19.91,44.7,27.3-4.87,3.78-9.15,7.14-12.3,12.6-10.08-6.56-19.41-13.81-29.7-20.4,12.56,11.48,25.41,23.08,39.9,32.4-19.44,41.54-39.3,90.18-59.1,131.4Zm109.8-2.1-72.6,1.5c20.43-30.56,34.79-64.08,50.1-97.5,4.8-11.4,9.6-22.5,14.1-34.2,1.13-4-11.52-8.09-14.4-11.4a23.49,23.49,0,0,0,6-4.8c17.4,3.9,34.5,8.1,51.6,12.3,16.59,4.76,34.93,7.07,48.3,18.6-28.6,27.9-24.73,77.41-24.6,114.6q-28.8,0-58.5.9Zm59.1-.9c7.81-37.38,2.3-81,24.3-114a1.91,1.91,0,0,0,1.8,0c2.47-1.52,7-.93,9.6.6a1,1,0,0,1,.6.3v.3c7.95,36.59,6.76,75.41,8.4,112.8C489.6,594.1,474.6,594.1,459.3,594.4Z"/><path class="a" d="M140.7,212.2s-7.8-14.7-15.9-17.1c-30.27-7,3.9,94.17,20.1,86.4,16.2-3.3,2.7-58.8-4.2-69.3Z"/><path class="i" d="M143.7,217.9c5.67,16.4,17.55,50.86,3.9,65.1-18.59,6.12-26.76-35-31.2-48-12.63-38.74,3.68-63.91,27.3-17.1Zm-9.6-15c-5.61-7.93-18.91-9.84-19.8,2.1-1.39,22.51,6.52,48,18.3,66.6,3.92,6.43,12.67,11.42,16.8,3,3.72-10.68,1.24-23.78-.6-35.1-2.42-13.3-5.61-26.56-14.7-36.6Z"/><path class="c" d="M121.5,205.9c6.9,4.5,13.2,17.1,16.2,29.7.14.76-.53,1.8-.6.6-3-7.7-6.09,3.55-4.2,6.9-.29,4.26,10.26,17.45,6.9,17.1-4.2-3.3-10.2-14.1-9-23.4.6-4.5,3-6.9,4.8-5.1-6.88-18.45-22.87-39.86-18-3.9,0,.9-.6,1.2-.9.3C114.6,218.2,114.3,201.1,121.5,205.9Z"/><path class="c" d="M138.3,262.9c-10-.15-26-50.48-14.1-52.5.6,0,.9,1.5.3,1.8-6.6,3.3.6,27.6,2.7,33.3,3,7.8,6.6,13.2,11.4,16.2C138.9,262,138.6,263.2,138.3,262.9Z"/><path class="a" d="M369.9,212.2s7.8-14.7,15.9-17.1c30.27-7-3.9,94.17-20.1,86.4-16.2-3.3-2.7-58.8,4.2-69.3Z"/><path class="i" d="M369.6,212.2c5.36-11.92,24.81-32.75,28.5-8.4,1.06,15.55-4,30.8-8.4,45.3-4.2,11-11.5,39.64-27,33.9-14-14.59-1.19-54.68,6.9-70.8Zm.3.3c-6.48,12.81-17.24,55-6.3,66,9.89,4.92,16.06-9.24,20.1-16.8,7.51-16.19,13.74-37.62,12.3-56.1-3.3-17.88-21.72-4-26.1,6.9Z"/><path class="c" d="M389.1,205.9c-6.9,4.5-13.2,17.1-16.2,29.7-.14.76.53,1.8.6.6,3-7.7,6.09,3.55,4.2,6.9.29,4.26-10.26,17.45-6.9,17.1,4.2-3.3,10.2-14.1,9-23.4-.6-4.5-3-6.9-4.8-5.1,6.88-18.45,22.87-39.86,18-3.9,0,.9.6,1.2.9.3,2.1-9.9,2.4-27-4.8-22.2Z"/><path class="c" d="M372.3,262.9c9.85-.26,26-49.71,14.1-52.5-.6,0-.9,1.5-.3,1.8,6.6,3.3-.6,27.6-2.7,33.3-3,7.8-6.6,13.2-11.4,16.2C371.7,262,372,263.2,372.3,262.9Z"/><path class="a" d="M380.87,183.11c-3.6-185.62-247.55-185.63-251.14,0,8.35,281.71,242.84,281.56,251.14,0Z"/><path class="d" d="M255.3,398.17c139.42-10.32,188.77-359.39,0-354.83-188.78-4.56-139.36,344.6,0,354.83Zm-97.63-99.58C116.56,214.4,117.22,77,228.23,52.33c27.14-5.55,56.41-2.36,81.5,9.6,106.53,55.39,77.55,208,13.54,286.44-64.31,81.89-131.93,26-165.6-49.78Z"/><path class="j" d="M215.16,325.75c16.58,16.78,48.45,30.14,85.62.36-3.43-1.37-23.87-16.3-30.36-15.9-6.24-1-9.69,1.74-13.8,1.92C238.09,306,223,318.35,215,323.65Z"/><path class="k" d="M213,325.18c8.72,6.26,17.81-1.23,27.27-.6,11.68,1.73,12.18,7.7,24.63.33,12.74-4.4,25.39,10.21,37.59,1.65a1.41,1.41,0,0,0-1.41-2.43c-15.4,4.89-23.71-6.85-42.27.42-7.35,1.2-13.44-3.06-20.76-3.09-7.83-.06-15.51,4.8-22.86,0C212.85,319.87,210.75,323.59,213,325.18Z"/><path class="e" d="M226.5,226.6c-10.9-22.78-46.08-27.53-63.6-3,10.64,6.75,52,11.37,63.6,3Z"/><path class="l" d="M195.6,201.4c21.57.29,21.83,32.54,0,32.7C174.16,233.87,173.59,201.47,195.6,201.4Z"/><path d="M195.6,204.4c17.43.11,17.11,26.26,0,26.4C178.49,230.66,178.17,204.51,195.6,204.4Z"/><path class="m" d="M179.1,217.6c.59,21.87,37,4.61,22.2-15.3-10.52-4.35-22.47,4.36-22.2,15.3Z"/><path class="n" d="M182.1,217.6c1.17,21.18,27.74,4.59,21.9-10.2C195.65,200.34,181.79,206.81,182.1,217.6Z"/><path class="o" d="M188.4,210.7c4.16-4.8,10,.36,5.1,4.8C189.32,220.37,183.53,214.94,188.4,210.7Z"/><path class="a" d="M179.7,229.3c11.52,2.68,39.11,3.72,46.8-2.7-10.57-22.27-45.21-27.61-62.7-3.9-1.65-46.73,62.62-48.82,63.6-2.1,0,43.16-59.89,46.11-63.6,3C165.6,225.1,171.6,227.8,179.7,229.3Z"/><path class="i" d="M228,231.1c-9.94,7.23-28.34,13.81-38.7,10.5,14.1-1.5,25.5-4.2,38.1-11.1.9-.6,1.2.3.6.6Z"/><path d="M162.9,224.2c16.5,12.3,46.2,11.1,64.5,4.5a1.66,1.66,0,0,0,.9-2.4C215.05,198.51,175.69,198.46,162.9,224.2Zm32.7,5.7c-11.1-.6-21-3.9-31.5-6.6,17.1-20.4,46.8-20.4,60.6,2.7a74.31,74.31,0,0,1-29.1,3.9Z"/><path class="e" d="M284.1,226.6c10.9-22.78,46.08-27.53,63.6-3C337.05,230.35,295.66,235,284.1,226.6Z"/><path class="l" d="M315,201.4c21.44.23,22,32.63,0,32.7C293.24,233.9,293.3,201.5,315,201.4Z"/><path d="M315,204.4c17.43.11,17.11,26.26,0,26.4C297.77,230.62,297.77,204.58,315,204.4Z"/><path class="m" d="M298.8,217.6c.59,21.87,37,4.61,22.2-15.3-10.52-4.35-22.47,4.36-22.2,15.3Z"/><path class="n" d="M301.8,217.6c1.17,21.18,27.74,4.59,21.9-10.2C315.35,200.34,301.49,206.81,301.8,217.6Z"/><path class="o" d="M307.8,210.7c4.16-4.8,10,.36,5.1,4.8C308.6,220.34,303.43,215.11,307.8,210.7Z"/><path class="a" d="M330.9,229.3c-11.52,2.68-39.11,3.72-46.8-2.7,10.57-22.27,45.21-27.61,62.7-3.9,1.65-46.73-62.62-48.82-63.6-2.1,0,43.16,59.89,46.11,63.6,3C345,225.1,339,227.8,330.9,229.3Z"/><path class="i" d="M282.6,231.1c9.94,7.23,28.34,13.81,38.7,10.5-14.1-1.5-25.5-4.2-38.1-11.1-.9-.6-1.2.3-.6.6Z"/><path d="M348.3,223.3c-17.4-24.9-51.9-24.6-66,3a1.66,1.66,0,0,0,.9,2.4c18.3,6.6,48,7.8,64.5-4.5C348,224.2,348.6,223.6,348.3,223.3ZM285.9,226c13.8-23.1,43.5-23.1,60.6-2.7-19.59,5.92-40.58,10.16-60.6,2.7Z"/><path class="p" d="M156,186.1c12.31-12.61,36.54-18.91,53.7-18.3,4.65,1,10.19-2.08,14.1,1.2,7-1.13,11.17,9.38,8.1,15-.44,9.08-14.05,10.23-21.3,7.8-7.26.09-14.45,1.35-21.6-.3-8.28.59-17.38-1-25.5-1.8a17.11,17.11,0,0,1-3.9.3c-3,1.5-6-1.5-3.6-3.9Z"/><path class="q" d="M210.6,191.2c6.52-5.17,12.51-10.95,14.4-19.2a.77.77,0,0,1,1.5.3c-1,8.25-7.4,17.66-15.3,20.4C210,193,209.7,191.8,210.6,191.2Zm7.2,0c5.1-3,11.7-8.4,11.7-14.7a.64.64,0,0,1,1.2-.3c1,7-5.84,15.11-12.6,16.2a.64.64,0,0,1-.3-1.2Zm-12.6-23.4c7.5,5.7,6.6,16.8,2.1,24-.3.6-1.2.3-.9-.6,2.7-8.4,3-15.3-2.1-22.8-.3-.3.6-1.2.9-.6Zm-7.8,2.7c6,4.8,9,14.4,7.8,21.9,0,.6-.9.3-.9-.3a40.83,40.83,0,0,0-7.5-21c-.6-.6.3-.9.6-.6Zm-15.9,4.8c8.41-2.26,16.2,9.41,16.5,16.8,0,.6-.9.6-.9.3a22.46,22.46,0,0,0-15-16.2c-.6-.3-.9-.9-.6-.9Zm-17.4,4.2c7.54-2.18,17.9,4.25,21,11.1.3.9-1.2,1.5-1.5.6C178.49,180,159.85,182.17,164.1,179.5Zm-6.6,7.5c1.64-2.14,20.21,2,14.1,3.3-4.5-2.1-9.3-2.4-14.1-2.7C157.2,187.9,156.9,187.3,157.5,187Z"/><path class="r" d="M184.5,168.7c-7.53,2.12-33.59,12.49-30,21.6,19.88,3.37,41.61,3.7,62.1,3.3,16.78,1.51,24-12.31,14.1-25.5a1,1,0,0,0-1.5,1.2,4.26,4.26,0,0,1,.6,1.8c-2.23-2.78-8.63-7.9-11.1-4.8-11.65-2.06-23-.25-34.2,2.4ZM171,176.8c6.15,2.3,9.69,8.41,13.8,13.2,5.18,1.12-8-14.49-11.1-14.1,16.71-7.15,35-9.9,52.5-5.1,11,7.74,6.34,22.21-8.1,21.3,5.7-3.3,9.6-10.5,9.9-16.8,0-.6-.9-.6-.9-.3-2.08,7.52-7.17,13-13.2,17.4h-2.4c6-3.9,9.9-12,9.6-18.9a.64.64,0,0,0-1.2-.3,37,37,0,0,1-12,19.2h-5.1c3.69-5.2-2-25.79-4.2-20.1,2.3,6.59,3.81,13.13,2.7,20.1-7,0-13.7-.29-20.7-.9-5.43-6.65-22.95-8.28-3.6-.6-6.9-.6-13.8-.9-20.7-1.2,3-5.7,8.4-9.9,14.7-12.9Z"/><path class="p" d="M354.6,186.1c-12.54-12.61-36.47-18.91-53.7-18.3-4.65,1-10.19-2.08-14.1,1.2-7-1.13-11.17,9.38-8.1,15,.44,9.08,14.06,10.23,21.3,7.8,7.26.09,14.45,1.35,21.6-.3,8.28.59,17.39-1,25.5-1.8a17.11,17.11,0,0,0,3.9.3c3,1.5,6-1.5,3.6-3.9Z"/><path class="q" d="M300,191.2c-6.52-5.17-12.51-10.95-14.4-19.2a.77.77,0,0,0-1.5.3c1,8.25,7.4,17.66,15.3,20.4C300.6,193,300.9,191.8,300,191.2Zm-7.2,0c-5.1-3-11.7-8.4-11.7-14.7a.64.64,0,0,0-1.2-.3c-1,7,5.84,15.11,12.6,16.2a.64.64,0,0,0,.3-1.2Zm12.6-23.4c-7.5,5.7-6.6,16.8-2.1,24,.3.6,1.2.3.9-.6-2.7-8.4-3-15.3,2.1-22.8.3-.3-.6-1.2-.9-.6Zm7.8,2.7c-6,4.8-9,14.4-7.8,21.9,0,.6.9.3.9-.3a40.83,40.83,0,0,1,7.5-21c.6-.6-.3-.9-.6-.6Zm15.9,4.8c-8.41-2.26-16.2,9.41-16.5,16.8,0,.6.9.6.9.3a22.46,22.46,0,0,1,15-16.2c.6-.3.9-.9.6-.9Zm17.4,4.2c-7.54-2.18-17.9,4.25-21,11.1-.3.9,1.2,1.5,1.5.6C332.11,180,350.75,182.17,346.5,179.5Zm6.6,7.5c-1.64-2.14-20.21,2-14.1,3.3,4.5-2.1,9.3-2.4,14.1-2.7C353.4,187.9,353.7,187.3,353.1,187Z"/><path class="r" d="M305.1,166a65.15,65.15,0,0,0-13.2.9c0-.3-.3-.6-.6-.9-3.9-.6-8.1,2.1-10.5,5.7a4.26,4.26,0,0,0,.6-1.8c-.83-6.75-8.81,10.4-4.5,17.1,3,6.9,10.5,6.9,17.1,7.2a350.71,350.71,0,0,0,61.5-3c.7-.4,1.88-.62,1.5-1.8-8.07-16.16-35-23-51.9-23.4Zm49.2,23.4c-6.9.3-13.8.9-20.7,1.2,18.94-7.57,2.36-6.15-3.6.6-7,.61-13.7.91-20.7.9-1.09-6.81.39-13.8,2.7-20.1-2.16-5.69-7.89,14.9-4.2,20.1h-5.1a36.5,36.5,0,0,1-12-19.2c-.3-.6-1.2-.6-1.2.3-.3,6.9,3.6,14.7,9.6,18.9h-2.4c-6-4.22-11.34-10-13.2-17.4-.3-.6-1.2-.6-.9.3.6,6.3,4.2,13.5,9.9,16.8-14.41,1-19.09-13.48-8.1-21.3,17.09-4.82,36-2,52.5,5.1-3.14-.37-16.23,15.16-11.1,14.1,4.24-5,7.38-10.58,13.8-13.2,6,3.3,11.7,7.5,14.7,12.9Z"/><path class="a" d="M270.48,260.05c1.68,2.76,7.92,10.83,9.27,14.7,2.42,14.06-9.16,10.9-16.23,10.26-1,.57-5.61,6.18-7.74,5.79-11-6.28-4.05-7.34-18-5-16.14-1-2.28-21,.78-25.71,7.15-7.13,6.34-25.41,7.35-35.4,1-11.14,16.1-13,18.39-.57,1.74,11.64.38,26.68,6.18,36Z"/><path class="d" d="M248.16,197.38a658.53,658.53,0,0,0-7.29,67.32c3.83,4.68,4.51-29.09,5.37-32.31,1.17-11.46,3.3-23.37,2.94-34.89a.52.52,0,0,0-1-.12Z"/><path class="d" d="M238.68,258.67c-28.28,36.89,11.93,30.26,2.43,24.93C219.42,286.63,243.25,259.36,238.68,258.67Z"/><path class="d" d="M238.23,282c8.52-.63,10.14,10.11,18.21,10.35,6.93.21,7.5-10.23,14.07-9.9a.76.76,0,0,0,.39-1.41c-7.47-4.41-8.85,8.58-15.72,7.77-6-1.26-9.89-12.48-17.31-8.13-.66.27-.33,1.38.36,1.32Z"/><path class="d" d="M268.17,286.9c5.61,1.26,12.15-.48,13.47-6.72,1.32-8.62-7.09-14.26-10.62-21.3a.83.83,0,0,0-1.53.42c-.33,5,3.39,8.49,6.06,12.36,5.67,7.67,2.31,14-7.35,13.77A.76.76,0,0,0,268.17,286.9Z"/><path class="s" d="M262.65,270c-2.66-4.24-7.61-.64-8.67,3-2.53,2.13-4,5.88-.69,8.07,6.19,3.73,13-5.48,9.36-11Z"/><path class="p" d="M143.81,230.78C149.69,190.49,132,67.5,215.24,86.51c45,14.09,54.52,7.92,85.82-2.1,22.22,5,40.93,3.17,53,38.69,7.2,19.2,16.13,56.69,14.12,83.38s2.59,22.8,2.59,22.8c5.11-15.7,18.77-30.45,14.11-53.39,1.94-10,3.26-24.67-3.46-35.09.91-4.16,2.25-31-3.74-37.8,3.22-16.12-9.34-31.76-19.3-39.89,0,0-13.53-36-25.63-42C304.13.63,296.25-.69,266.79,4.62c0,0-7.2-6-23.62-.6-14.51-7.14-49.22,8.94-55,21.9,0,0-18.44,6.6-23.62,15.9-21,9-39.11,39.53-32.54,64.78,0,0-7.2,17.4-2,34.5,0,0-8.93,9.89-2.59,33.89,0,0-5.19,11.4,1.44,28.19,6.62,17.1,6,27,15,27.6Z"/><path class="r" d="M383.14,139c1.81-12.68,1-27.14-4.32-37.2C381,85.45,371.17,71.55,359,61.91c-10-38.65-55.26-79-94.75-54-.58.6-.29,1.8.57,1.5,28.52-12,57.32-.6,75.46,24.6,15,20.69,17.86,43.79,16.13,69-.29,1.8,2.59,2.1,3.17.6a73.79,73.79,0,0,0,.28-36.29c21.19,17.5,18.47,43.27,3.46,63.59.62,10.5,15.17-21.71,14.4-24.3,4.93,20.34.35,40.38-9.22,58.79,1.29,8.65,12.93-16.53,13-20.09,1.16,6,2,11.69,1.16,18-.1,4.46-9.25,30,.57,15-.46,17.61-5.37,32.24-14.11,48.59.54-45.13,1.48-106.41-37.44-135.87,2.14.15,9.38-.55,5.47-3.6-17-3.3-33.41-5.4-48.38-15.6-19.59-13.5-32.83-38.39-26.79-63a1.19,1.19,0,0,0-2.3-.6c-11.23,29.4,9.5,60,36.29,74.39-79.62,31.74-112.08-83.87-29.95-78,1.15.3,1.72-1.5.57-1.8a33.83,33.83,0,0,0-24.77-.9C223.3-.48,204,4.92,191.05,19h-.58c-29,19.2-72.33,46-61.92,87a73,73,0,0,0-2.3,32.7c-4.32,9-6,24.29-2.31,35.39-4,13.2,1.44,27.89,6.34,40.19,3.15,7.52,3.95,19.13,13,18.9a2.8,2.8,0,0,0,2.3-2.4c2.21-38.17-.49-115.71,31.68-139.78,41.52-17.93,74.1,27.22,124.13-5.69A73.84,73.84,0,0,0,323.24,91c42.82,21.49,40.17,98.52,40.32,140.67-.29,2.4,2.59,2.7,3.74,1.5,7.49-3.9,7.2-10.8,10.37-18.9C382.85,202,387.75,187,384,174.09,389.19,163.29,387.46,148,383.14,139ZM157.93,108.1c-15.27,36.3-16.13,81-16.42,120-9.1-15.55-14.8-32.31-15-49.79,10,15.21.65-10.72.58-15a53.65,53.65,0,0,1,1.44-18c-.32,3.11,11.85,28.95,13,20.09-8.58-16.88-13.86-35.23-10.08-54.29.48,1.69,10.74,16.86,10.94,9.3-18.43-27-6.62-57,17-74.08-8.71,13.85-5.91,37,10.36,43.49,1.16.6,2-1.2,1.16-2.1-12.91-13.17-17.21-32.17-2.6-46.79.29-.3.58-.6.58-.9,4.9-5.1,11.23-8.4,17-12.6-10.08,17.4-8.06,40.19,8.35,52.19.87.6,2-.9,1.16-1.5-20.46-19.61-12.75-53.71,11.52-66C187.72,32,194.71,70.2,217,85.31c-23-6.6-48.1-3-59,22.79Zm60.48-28.49C188.66,58.33,196.14,1.93,237.13,4.32c-41.49,22.06-22.73,81.87,20.16,87.59C244,92.51,230.79,89.51,218.41,79.61Z"/><path class="q" d="M335.62,77.51c-28.34,1.88-66.89-38.19-58.75-66.59.58-1.2-.86-2.1-1.44-.9-12.19,28.27,31.22,74.46,60.19,69.29a.9.9,0,0,0,0-1.8Zm-65.95-7.2C255.56,55.91,240.29,38.52,249.51,16c.58-1.2-.86-2.1-1.44-.9-10.94,21.9,3.74,43.79,20.74,56.39C269.38,72.11,270.25,70.91,269.67,70.31Zm-1.15,6.3C250.37,64,232.81,49,233.09,24.42a.72.72,0,0,0-1.44,0c-1.73,22.8,18.35,49,36.87,52.19Zm5.76,2.4c-16.71-.9-31.11-6.9-42-20.4-.58-.6-1.73.3-1.15,1.2,10.37,13.2,26.49,21.9,42.91,21,1.15-.3,1.15-1.5.29-1.8Zm-50.11-6.3c-15-15.6-22.47-37.49-6.34-55.79.86-1.2-.58-2.7-1.44-1.5-17.86,16.8-12.38,46.19,6.34,60,1.15.6,2.59-1.5,1.44-2.7Zm-24.77-3.6c-8.64-12-11.23-26.69-5.19-40.49.58-.9-.86-1.8-1.44-.9-6.91,13.8-5.47,31.19,5.48,42.29C198.82,70.61,199.69,70,199.4,69.11ZM174.34,44.22c.29-.9-.86-1.2-1.15-.3-2,7.79-2.3,16.79,1.15,24,.29.9,1.73.3,1.44-.6C173.77,59.51,172.61,52.31,174.34,44.22Zm0,30.59c-2.3-3-4.61-5.7-6.05-9.3-3.13-1.12,4.23,9.57,5.76,9.9C174.05,75.71,174.63,75.11,174.34,74.81ZM151,96.11c-6-11.7-6.91-22.2-3.45-34.8-2.92-7.75-9.33,28.39,2,36C150.15,98.5,151.59,97.31,151,96.11Zm-5.76,10.79c-4.32-7.5-6.91-14.39-6.33-23.09,0-.6-.87-.6-1.15,0-.87,8.4.57,17.69,6.33,24C145,108.4,145.83,107.8,145.25,106.9Zm-6.33,45.29c-3.46-9.89-5.76-19.19-4.9-30.29,0-.6-.86-.9-1.15,0-1.44,10.5-.86,21.9,4.32,31.19.58.6,2,0,1.73-.9Zm-10.37,8.1c-2.39-1.14,2.3,8.85,2.88,9.9C134.24,171.56,129.08,161.45,128.55,160.29ZM369.89,93.11c-.57-4.5-.86-13.5-6.33-13.8a.77.77,0,0,0-.29,1.5c4.61,2.4,4.32,15.6,4.32,19.79a60.71,60.71,0,0,1-3.74,17.7C367.32,124.44,371.52,95.9,369.89,93.11Zm6.63,29.09c-.29-1.2-1.73-.6-1.73.6,1.73,9.3-.86,17.4-5.47,25.19-.58.9.57,1.8,1.44,1.2C377.09,142,378.82,131.2,376.52,122.2ZM380,157.29a.72.72,0,0,0-1.44,0c.58,5.4-.28,10.5-1.44,15.6,2.41,2.71,3.75-13.58,2.88-15.6ZM314.6,16.92C333.5,29.43,346.68,54.35,353.48,79c.45-17.44-19.06-54.74-38.88-62.09Z"/></svg>