<svg version="1.1" id="Layer_1" xmlns="http://www.w3.org/2000/svg" xmlns:xlink="http://www.w3.org/1999/xlink" x="0px" y="0px"
	 viewBox="0 0 114.6 122.9" style="enable-background:new 0 0 114.6 122.9;" xml:space="preserve">
<path fill="#0D86FF" d="M59.7,26.2c-1.3,0.3-2.4,3.9-3.8,3.1c-4.2-7.5-15.6-5.5-18.3,2.1l0,0c-0.3,0.5-0.1,1.5-0.8,1.6c-6.3,1-10.5,7.5-10.4,13.7
	C22,52.2,17,57.2,21.9,65.1l0,0c5.4,5.4,0.1,9.5,6.7,15.8l1.2-4.4c-2.1-2.8-1.3-6.1-1-9.2c-2.9-3-6.4-6.7-4.6-11.3
	c0.8-3,3.9-4.6,6-6.7c-0.2-5,1.1-11.1,6.6-12.6c0.3-0.1,0.6,0.1,0.7,0.4c0.7,2.1,2.8,6.4,5.4,4.3c1.9-3-5.4-5.2-0.6-10.9
	c3.7-4.5,10.4-2.7,11.9,3c0.6,1.6,4.2,1.6,4.9,0.1c-0.1-2.5,2.8-5.1,5-5.6c6.8-0.7,10.1,5.6,6.6,11.2c1.2,3.9,4.5,0.1,4.8-2.3l0,0
	c3.3-1.5,7.6,2.5,8.9,5.5c1.4,2.5,0.4,5.2,0.3,7.8c2.3,2.6,5.5,5.1,5.2,9c-1.1,9.9-11.4,4.8-4.5,18.7c3.1-6.5-0.5-6.5,5.9-12l0,0
	c4.1-5.2,2.5-12.8-2.4-16.9c0.5-5.3-1.1-11.1-5.9-14.2c-2.1-1.9-5.2-1.7-7.3-2.6C74,25.8,65.4,21.9,59.7,26.2L59.7,26.2L59.7,26.2z
	 M47.8,91.8c-3.7-2.4-6.7-6.5-10.7-7.9c-5.5-0.3-1.3,8.2,0.5,10.2c0,0,13.1,18.7,13.1,18.7c0.7,1.9,0.8,4.6,1.7,5.6
	c-0.1,2.2,21.3,0.6,22.5,1.1c6.7-0.7,11.4-11.8,12.2-17.9c-0.8-5.3,2.5-18.1-5.9-16.8c-0.6,2.4,1.1,7.1-2,7.8c-1,0-1.7-0.8-1.7-1.7
	c0-5,1.9-12.6-4.9-11.4c-0.6,2.5,1.2,7.7-2,8.5c-5.1-1.1,3.4-14.3-6.7-13.1v6.7c0,2.2-3.5,2.2-3.4,0c0,0,0-20.2,0-20.2
	c0.3-8-9.5-8-9.1,0.1c-0.8,1,2,36.8-1.7,35.4C47.1,96.8,47.9,93.3,47.8,91.8L47.8,91.8L47.8,91.8z M63.8,71.5
	c3.7-0.7,7.9,1.1,8.4,4.7c3.9-1.1,8.5,1.2,8.8,5.1c9-1.3,9.9,7.3,9.4,14.1C91.2,102,89.7,109,86,114c-2.3,4.4-5.7,9-11,8.9
	c0,0-20.6,0-20.6,0c-4.5,0-6.1-4.1-6.7-8.5c0,0-12.8-18.3-12.8-18.3c-4.3-4.2-6.4-17,3-15.5c3.9,0.9,6.5,4.3,10.1,6.9V61.4
	c-0.4-12.6,16.4-12.6,16-0.1C63.8,61.3,63.8,71.5,63.8,71.5L63.8,71.5L63.8,71.5L63.8,71.5z M96.6,84.1c-0.8-1.8,0.1-4.1,1.9-4.9
	v-6.1H91c-0.5-1.8,1.3-2.4,2.4-3.4c0.9,0.2,7.4-0.5,8,0.5c1,0.5,0.3,8.1,0.5,9C107.8,82.7,99.4,90.4,96.6,84.1L96.6,84.1L96.6,84.1z
	 M107.4,64.6H97.2c0.5-1.1,0.9-2.2,1-3.4h9.1c1.6-3.6,7.4-2.2,7.2,1.7C114.7,66.9,109,68.2,107.4,64.6L107.4,64.6L107.4,64.6z
	 M110.6,55.3H97.8c-0.4-1.2-0.9-2.3-1.5-3.4h12.6V40.8c-3.4-1.8-1.9-7.3,1.9-7.1c4-0.1,5.3,5.8,1.5,7.3v12.6
	C112.3,54.6,111.5,55.3,110.6,55.3L110.6,55.3L110.6,55.3z M97.3,47.1h-4.3c0.2-1.1,0.3-2.3,0.2-3.4h2.4v-5c-0.4-0.2-0.7-0.4-1-0.7
	c-3-2.8,0.6-8,4.3-6.2c2.8,1.2,2.9,5.6,0.1,6.9C98.5,40.2,100.3,47.3,97.3,47.1L97.3,47.1L97.3,47.1z M29.9,18
	c1.8,0.8,4.1-0.1,4.9-1.9h6.1v5.2c1.1-0.6,2.2-1,3.4-1.2c0.6-10.5-1-6.8-9.5-7.4C31.3,6.8,23.6,15.1,29.9,18L29.9,18z M49.4,7.2
	v13.1c1.2,0.3,2.3,0.9,3.4,1.7c0-0.1,0-14.7,0-14.8C56.3,5.6,55-0.1,51.1,0C47.2-0.1,45.8,5.6,49.4,7.2L49.4,7.2z M58.7,4v19.2
	c1-1,2.1-1.8,3.4-2.4V5.7h11.1c1.8,3.4,7.3,1.9,7.1-1.9c0.1-4-5.8-5.3-7.3-1.5H60.4C59.4,2.3,58.7,3.1,58.7,4L58.7,4L58.7,4z
	 M66.9,17.3V20c1.2,0.1,2.3,0.3,3.4,0.7v-1.6h5c0.2,0.4,0.4,0.7,0.7,1c2.8,3,7.9-0.5,6.2-4.2c-1.1-3-5.6-3.1-6.9-0.3
	C73.8,16.1,66.7,14.4,66.9,17.3L66.9,17.3L66.9,17.3z M18,33.8c0.8,1.8-0.1,4.1-1.9,4.9v6.1h6.3c0.5,1.8-1.6,2.3-2.5,3.4
	c-0.9-0.2-6.1,0.5-6.7-0.5c-1-0.5-0.3-8.1-0.5-9C6.8,35.3,15.2,27.5,18,33.8L18,33.8L18,33.8z M7.2,53.3h9c-0.5,1.1-0.8,2.2-1,3.4
	h-8C5.6,60.2-0.1,58.9,0,55C-0.1,51,5.6,49.7,7.2,53.3L7.2,53.3L7.2,53.3z M4,62.6h11.8c0.4,1.2,0.9,2.3,1.6,3.4H5.7v11.1
	c3.4,1.8,1.9,7.3-1.9,7.1c-4,0.1-5.3-5.8-1.5-7.3V64.3C2.3,63.3,3.1,62.6,4,62.6L4,62.6z M17.3,70.8h3.2c-0.2,1.1-0.2,2.3-0.1,3.4
	H19v5c0.4,0.2,0.7,0.4,1,0.7c3,2.8-0.5,7.9-4.2,6.2c-2.9-1.1-3.1-5.6-0.3-6.9C16.1,77.7,14.3,70.6,17.3,70.8L17.3,70.8z"/>
</svg>
