<svg width="256" height="62" viewBox="0 0 256 62" fill="white" xmlns="http://www.w3.org/2000/svg">
<g clip-path="url(#clip0_170_651)">
<path d="M36.8552 52.5158L27.3656 46.4189L17.8759 52.5158L14.8304 50.837L11.7407 52.6484L27.3656 61.7937L42.9904 52.6042L39.9007 50.7928L36.8552 52.5158ZM27.3656 58.0384L21.0097 54.283L27.3656 50.2184L33.7214 54.283L27.3656 58.0384Z" fill="white"/>
<path d="M51.4207 33.7833V43.8122L46.08 46.9932L39.0621 43.017L35.7959 44.8726L46.08 50.7927L54.6869 45.6678V33.1648V31.9277L51.4207 33.7833Z" fill="white"/>
<path d="M51.4206 26.0958L44.4027 30.1604L47.6248 32.016L54.6868 27.9514V19.6013L51.4206 21.4569V26.0958Z" fill="white"/>
<path d="M16.1986 42.6194L8.6069 46.9932L3.26621 43.8122V33.7833L0 31.9277V45.6678L8.6069 50.7927L19.4648 44.4749L16.1986 42.6194Z" fill="#3235AD"/>
<path d="M0 19.3804V27.9513L7.01793 32.0159L10.2841 30.1604L3.26621 26.0958V21.2801L0 19.3804Z" fill="white"/>
<path d="M18.5821 41.3381L27.3655 46.3746L36.1048 41.3381V26.6261L54.6869 15.8461L27.3214 0.0737305L0 15.8903L18.5821 26.6702V41.3381ZM27.3214 3.82905L39.7683 11.0304L27.3214 18.1876L14.9186 11.0304L27.3214 3.82905ZM6.53241 15.8903L11.6524 12.886L27.3214 21.943L43.0345 12.886L48.1545 15.8461L32.8386 24.7705V39.4383L27.3655 42.6193L21.8924 39.4383V24.7705L6.53241 15.8903Z" fill="white"/>
<path d="M21.0097 54.283L27.3214 50.2184V46.4189L17.8318 52.5158L14.7862 50.837L11.7407 52.6042L27.3214 61.7937V58.0384L21.0097 54.283Z" fill="white"/>
<path d="M16.1986 42.6194L8.6069 46.9932L3.26621 43.8122V33.7833L0 31.9277V45.6678L8.6069 50.7927L19.4648 44.4749L16.1986 42.6194Z" fill="white"/>
<path d="M0 19.3804V27.9513L7.01793 32.0159L10.2841 30.1604L3.26621 26.0958V21.2801L0 19.3804Z" fill="white"/>
<path d="M21.8483 39.4383V24.7705L6.53241 15.8903L11.6524 12.886L27.3214 21.9871V18.1876L14.9186 11.0304L27.3214 3.82905V0.0737305L0 15.8903L18.5821 26.6261V41.3381L27.3214 46.3746V42.6193L21.8483 39.4383Z" fill="white"/>
<path d="M88.32 34.0042C85.4069 35.1529 82.6704 35.7272 80.1104 35.7272C76.0938 35.7272 73.2249 34.5785 71.5035 32.237C69.7821 29.9396 68.9435 27.1563 68.9435 23.9753V20.1758C68.9435 16.9948 69.8262 14.2114 71.5035 11.9141C73.1807 9.6167 76.138 8.46802 80.2869 8.46802C82.8028 8.46802 85.4952 8.954 88.4083 9.92597L87.658 13.9905C84.8773 12.886 82.4497 12.3117 80.3311 12.3117C77.8152 12.3117 76.0055 13.0628 74.9904 14.5207C73.9752 16.0228 73.4455 17.8784 73.4455 20.1758V23.9753C73.4455 26.2727 73.9311 28.1282 74.9904 29.6304C76.0055 31.1325 77.7269 31.8394 80.1104 31.8394C82.7586 31.8394 85.7159 30.9116 89.0262 29.056L88.32 34.0042Z" fill="white"/>
<path d="M107.917 24.3286V27.598C107.917 32.5462 104.563 35.7271 99.6635 35.7271C94.8083 35.7271 91.4097 32.5462 91.4097 27.598V24.3286C91.4097 21.9429 92.16 19.999 93.6607 18.4968C95.1614 16.9947 97.1476 16.1995 99.6635 16.1995C104.607 16.1995 107.917 19.3804 107.917 24.3286ZM102.356 30.7789C103.106 30.0721 103.459 29.0117 103.459 27.598V24.3286C103.459 22.9149 103.106 21.8545 102.356 21.1477C101.606 20.4408 100.723 20.0873 99.7076 20.0873C98.6924 20.0873 97.8097 20.4408 97.0593 21.1477C96.309 21.8545 95.9559 22.9149 95.9559 24.3286V27.598C95.9559 29.0117 96.3531 30.0721 97.0593 30.7789C97.8097 31.4858 98.6924 31.8393 99.7076 31.8393C100.723 31.8393 101.606 31.4858 102.356 30.7789Z" fill="white"/>
<path d="M126.367 22.694V35.1528H121.865V22.694C121.865 20.9267 121.114 20.0431 119.349 20.0431C117.936 20.0431 116.921 20.1757 116.215 20.3966V35.1528H111.713V17.4807C114.891 16.6413 117.407 16.1995 119.305 16.1995C121.203 16.1995 122.615 16.5087 123.498 17.1714C125.131 16.5529 126.94 16.1995 128.927 16.1995C131.266 16.1995 133.032 16.818 134.223 18.0109C135.371 19.2479 135.989 20.7942 135.989 22.694V35.1528H131.531V22.694C131.531 20.9267 130.78 20.0431 129.015 20.0431C127.647 20.0431 126.676 20.1315 126.102 20.3082C126.278 20.9267 126.367 21.6778 126.367 22.694Z" fill="white"/>
<path d="M154.924 22.694V35.1528H150.422V22.694C150.422 20.9267 149.672 20.0431 147.906 20.0431C146.494 20.0431 145.479 20.1757 144.773 20.3966V35.1528H140.271V17.4807C143.448 16.6413 145.964 16.1995 147.862 16.1995C149.76 16.1995 151.173 16.5087 152.055 17.1714C153.688 16.5529 155.498 16.1995 157.484 16.1995C159.824 16.1995 161.589 16.818 162.781 18.0109C163.928 19.2479 164.546 20.7942 164.546 22.694V35.1528H160.044V22.694C160.044 20.9267 159.294 20.0431 157.528 20.0431C156.16 20.0431 155.189 20.1315 154.615 20.3082C154.836 20.9267 154.924 21.6778 154.924 22.694Z" fill="white"/>
<path d="M179.553 16.7297H184.055V34.446C180.524 35.2854 177.788 35.6831 175.89 35.6831C173.55 35.6831 171.785 35.0645 170.593 33.8275C169.401 32.5904 168.828 31.0441 168.828 29.1886V16.7297H173.33V29.2327C173.33 31 174.08 31.8394 175.89 31.8394C177.302 31.8394 178.538 31.7068 179.553 31.4418V16.7297Z" fill="white"/>
<path d="M192.75 35.1528H188.248V17.4365C191.779 16.5971 194.516 16.1995 196.414 16.1995C198.753 16.1995 200.518 16.818 201.71 18.0109C202.858 19.2479 203.476 20.7942 203.476 22.694V35.1528H198.974V22.694C198.974 20.9267 198.223 20.0431 196.458 20.0431C195.045 20.0431 193.809 20.1757 192.794 20.4408V35.1528H192.75Z" fill="white"/>
<path d="M211.862 27.5096V27.5538C211.862 30.3813 213.363 31.7951 216.188 31.7951C217.865 31.7951 220.072 31.2207 222.809 30.0279L222.367 34.3575C220.072 35.2411 217.998 35.6829 216.188 35.6829C213.275 35.6829 211.112 34.9319 209.611 33.3856C208.111 31.8834 207.36 29.9395 207.36 27.5538V24.2844C207.36 21.8987 208.111 19.9548 209.611 18.4526C211.112 16.9505 213.098 16.1553 215.614 16.1553C218.13 16.1553 220.16 16.9063 221.661 18.4526C223.162 19.9548 223.868 21.8545 223.868 24.1077V27.5096H211.862ZM219.366 23.8426C219.366 21.6778 217.733 20.0873 215.614 20.0873C213.496 20.0873 211.862 21.722 211.862 23.8426H219.366Z" fill="white"/>
<path d="M232.386 35.1528H227.884V17.4807C230.93 16.6413 233.975 16.1995 237.153 16.1995L236.624 20.0873C234.373 20.0873 232.96 20.2199 232.386 20.3966V35.1528Z" fill="white"/>
<path d="M243.686 27.5096V27.5538C243.686 30.3813 245.186 31.7951 248.011 31.7951C249.688 31.7951 251.895 31.2207 254.632 30.0279L254.19 34.3575C251.895 35.2411 249.821 35.6829 248.011 35.6829C245.098 35.6829 242.935 34.9319 241.435 33.3856C239.934 31.8834 239.184 29.9395 239.184 27.5538V24.2844C239.184 21.8987 239.934 19.9548 241.435 18.4526C242.935 16.9505 244.921 16.1553 247.437 16.1553C249.953 16.1553 251.984 16.9063 253.484 18.4526C254.985 19.9548 255.691 21.8545 255.691 24.1077V27.5096H243.686ZM251.189 23.8426C251.189 21.6778 249.556 20.0873 247.437 20.0873C245.319 20.0873 243.686 21.722 243.686 23.8426H251.189Z" fill="white"/>
<path d="M72.2539 54.5037L75.2111 46.4629H76.2263L79.1836 54.5037H78.1243L77.3298 52.2063H74.0636L73.2691 54.5037H72.2539ZM77.0208 51.3669L75.7408 47.7441H75.6967L74.4167 51.3669H77.0208Z" fill="white"/>
<path d="M83.9504 47.2581C82.538 47.2581 81.3904 48.4068 81.3904 50.4833C81.3904 52.5597 82.538 53.7084 84.0387 53.7084C85.4069 53.7084 86.3338 52.7806 86.378 51.3669H84.2594V50.4833H87.3049V51.3669C87.3049 53.355 85.9366 54.6362 84.0387 54.6362C81.92 54.6362 80.4635 53.0457 80.4635 50.5275C80.4635 48.0092 81.9201 46.4187 83.9945 46.4187C85.6718 46.4187 86.9959 47.479 87.3049 49.0253H86.2897C85.8925 47.9208 85.098 47.2581 83.9504 47.2581Z" fill="white"/>
<path d="M90.6595 54.5037H89.6885V46.4629H90.6595V54.5037Z" fill="white"/>
<path d="M93.3076 46.4629H94.2787V53.6201H98.0304V54.5037H93.3076V46.4629Z" fill="white"/>
<path d="M100.237 46.4629H105.092V47.3465H101.208V50.0415H104.828V50.9251H101.208V53.6643H105.137V54.5479H100.237V46.4629Z" fill="white"/>
<path d="M116.745 53.8412L117.804 55.255H116.745L116.039 54.3272C115.597 54.5039 115.112 54.6365 114.582 54.6365C112.508 54.6365 111.051 53.046 111.051 50.5277C111.051 48.0094 112.552 46.4189 114.582 46.4189C116.657 46.4189 118.113 48.0094 118.113 50.5277C118.157 51.9857 117.628 53.1343 116.745 53.8412ZM115.333 51.9857L116.171 53.0902C116.789 52.56 117.186 51.6764 117.186 50.4393C117.186 48.3629 116.039 47.2142 114.582 47.2142C113.126 47.2142 111.978 48.3629 111.978 50.4393C111.978 52.5158 113.126 53.6645 114.582 53.6645C114.891 53.6645 115.2 53.6203 115.465 53.532L114.273 51.9857H115.333Z" fill="white"/>
<path d="M126.72 46.4629V51.7645C126.72 53.5759 125.308 54.6362 123.586 54.6362C121.909 54.6362 120.453 53.5759 120.453 51.7645V46.4629H121.424V51.7645C121.424 53.0016 122.439 53.7085 123.586 53.7085C124.734 53.7085 125.749 53.0016 125.749 51.7645V46.4629H126.72Z" fill="white"/>
<path d="M128.706 54.5037L131.663 46.4629H132.678L135.636 54.5037H134.621L133.826 52.2063H130.56L129.765 54.5037H128.706ZM133.473 51.3669L132.193 47.7441H132.149L130.869 51.3669H133.473Z" fill="white"/>
<path d="M137.534 46.4629H138.505V53.6201H142.256V54.5037H137.534V46.4629Z" fill="white"/>
<path d="M145.434 54.5037H144.463V46.4629H145.434V54.5037Z" fill="white"/>
<path d="M147.686 46.4629H153.688V47.3465H151.172V54.5037H150.201V47.3465H147.686V46.4629Z" fill="white"/>
<path d="M156.337 46.4629L158.544 50.2182H158.632L160.839 46.4629H161.942L159.029 51.1902V54.5037H158.058V51.1902L155.145 46.4629H156.337Z" fill="white"/>
<path d="M167.768 54.5037V46.4629H170.372C172.712 46.4629 174.08 47.965 174.08 50.4833C174.08 53.0016 172.712 54.5037 170.24 54.5037H167.768ZM170.196 53.6201C172.182 53.6201 173.153 52.4272 173.153 50.4391C173.153 48.4952 172.182 47.3023 170.328 47.3023H168.783V53.6201H170.196Z" fill="white"/>
<path d="M176.419 46.4629H181.275V47.3465H177.39V50.0415H181.01V50.9251H177.39V53.6643H181.319V54.5479H176.419V46.4629Z" fill="white"/>
<path d="M186.439 53.2225H186.527L188.911 46.4629H189.926L186.969 54.5037H185.953L182.996 46.4629H184.011L186.439 53.2225Z" fill="white"/>
<path d="M191.912 46.4629H196.767V47.3465H192.883V50.0415H196.502V50.9251H192.883V53.6643H196.811V54.5479H191.912V46.4629Z" fill="white"/>
<path d="M199.239 46.4629H200.21V53.6201H203.962V54.5037H199.239V46.4629Z" fill="white"/>
<path d="M209.081 54.592C207.007 54.592 205.55 53.0015 205.55 50.4833C205.55 47.965 207.051 46.3745 209.081 46.3745C211.156 46.3745 212.612 47.965 212.612 50.4833C212.612 53.0015 211.112 54.592 209.081 54.592ZM209.081 47.2581C207.625 47.2581 206.477 48.4068 206.477 50.4833C206.477 52.5597 207.625 53.7084 209.081 53.7084C210.538 53.7084 211.685 52.5597 211.685 50.4833C211.685 48.4068 210.538 47.2581 209.081 47.2581Z" fill="white"/>
<path d="M214.952 46.4629H217.644C219.542 46.4629 220.381 47.5674 220.381 49.0253C220.381 50.4833 219.542 51.5878 217.688 51.5878H215.923V54.5037H214.952V46.4629ZM217.644 50.7042C218.924 50.7042 219.41 49.9531 219.41 49.0253C219.41 48.0534 218.924 47.3465 217.6 47.3465H215.879V50.7042H217.644Z" fill="white"/>
<path d="M223.868 46.4629L226.604 53.1341H226.692L229.429 46.4629H230.577V54.5037H229.65V48.4068H229.561L227.046 54.5037H226.163L223.647 48.4068H223.559V54.5037H222.632V46.4629H223.868Z" fill="white"/>
<path d="M233.49 46.4629H238.345V47.3465H234.461V50.0415H238.08V50.9251H234.461V53.6643H238.389V54.5479H233.49V46.4629Z" fill="white"/>
<path d="M247.128 54.5037H246.201L241.832 48.1859H241.743V54.5037H240.772V46.4629H241.699L246.069 52.7807H246.157V46.4629H247.128V54.5037Z" fill="white"/>
<path d="M249.379 46.4629H255.382V47.3465H252.866V54.5037H251.895V47.3465H249.379V46.4629Z" fill="white"/>
</g>
<defs>
<clipPath id="clip0_170_651">
<rect width="256" height="61.8523" fill="white" transform="translate(0 0.0737305)"/>
</clipPath>
</defs>
</svg>
